Coordinates
version=1
nRows=23
nColumns=38
inDegrees=no

Units are S.I. units (second, meters, Newtons, ...)
If the header above contains a line with 'inDegrees', this indicates whether rotational values are in degrees (yes) or radians (no).

endheader
time	pelvis_tilt	pelvis_list	pelvis_rotation	pelvis_tx	pelvis_ty	pelvis_tz	hip_flexion_r	hip_adduction_r	hip_rotation_r	knee_angle_r	ankle_angle_r	subtalar_angle_r	mtp_angle_r	hip_flexion_l	hip_adduction_l	hip_rotation_l	knee_angle_l	ankle_angle_l	subtalar_angle_l	mtp_angle_l	lumbar_extension	lumbar_bending	lumbar_rotation	arm_flex_r	arm_add_r	arm_rot_r	elbow_flex_r	pro_sup_r	wrist_flex_r	wrist_dev_r	arm_flex_l	arm_add_l	arm_rot_l	elbow_flex_l	pro_sup_l	wrist_flex_l	wrist_dev_l
0.9	0.528364	1.38586	-2.15274	0.817584	0.311394	1.04203	-0.253251	-0.113131	0.0295075	0.809273	-0.273326	0	0	0.137306	0.103926	-0.314161	0.428935	-0.221146	0	0	-0.328627	-0.13175	-0.0530527	-0.212376	-0.196684	-0.23713	0.492682	0.365279	0	0	-0.318189	-0.603295	0.777886	0.648391	0.794471	0	0
0.91	0.542283	1.38432	-2.16617	0.819111	0.299972	1.04329	-0.233554	-0.115626	0.0406479	0.855221	-0.310777	0	0	0.129249	0.107531	-0.3106	0.435283	-0.217864	0	0	-0.328066	-0.138091	-0.0534244	-0.213975	-0.177895	-0.303378	0.492492	0.423647	0	0	-0.291205	-0.627955	0.845195	0.654911	0.742795	0	0
0.92	0.558519	1.38244	-2.1798	0.820472	0.288876	1.04408	-0.211016	-0.11731	0.0536787	0.902034	-0.340427	0	0	0.118722	0.111625	-0.31176	0.436936	-0.215102	0	0	-0.327389	-0.143126	-0.0597258	-0.216333	-0.176766	-0.29877	0.494416	0.416514	0	0	-0.284291	-0.640755	0.848531	0.659042	0.742147	0	0
0.93	0.572104	1.3797	-2.19245	0.821823	0.278135	1.04486	-0.186988	-0.119349	0.0658164	0.949394	-0.365174	0	0	0.106613	0.116595	-0.314675	0.436635	-0.212072	0	0	-0.32861	-0.148047	-0.0643214	-0.218806	-0.17681	-0.292854	0.49867	0.410584	0	0	-0.27619	-0.653346	0.848917	0.663757	0.743402	0	0
0.94	0.583716	1.37638	-2.20488	0.823117	0.267678	1.04565	-0.16191	-0.12164	0.0771385	0.995923	-0.378566	0	0	0.0935365	0.122188	-0.320327	0.435551	-0.207968	0	0	-0.331044	-0.152925	-0.0673116	-0.221127	-0.178177	-0.285167	0.504216	0.403024	0	0	-0.267028	-0.665006	0.846931	0.667665	0.747866	0	0
0.95	0.591959	1.3722	-2.21542	0.824333	0.257418	1.04649	-0.13717	-0.123959	0.0878705	1.04057	-0.371288	0	0	0.0786203	0.128505	-0.327339	0.433475	-0.202898	0	0	-0.334625	-0.157847	-0.0695129	-0.223154	-0.181277	-0.27378	0.510626	0.390871	0	0	-0.258056	-0.67564	0.841998	0.670156	0.758348	0	0
0.96	0.592775	1.36717	-2.2187	0.825488	0.247415	1.04725	-0.113809	-0.12544	0.0968871	1.08306	-0.342323	0	0	0.061015	0.135468	-0.332587	0.429428	-0.197382	0	0	-0.338684	-0.162276	-0.0767556	-0.224394	-0.198213	-0.209735	0.518285	0.330987	0	0	-0.264794	-0.678657	0.792652	0.671604	0.799913	0	0
0.97	0.586984	1.36027	-2.21386	0.826731	0.237649	1.04875	-0.0927528	-0.126665	0.102455	1.12279	-0.306218	0	0	0.039921	0.142291	-0.334197	0.4219	-0.192873	0	0	-0.350095	-0.164729	-0.0746118	-0.225885	-0.185065	-0.264604	0.527633	0.385899	0	0	-0.233007	-0.699791	0.83679	0.680582	0.76565	0	0
0.98	0.58011	1.35509	-2.20722	0.827963	0.227961	1.05004	-0.0699026	-0.126779	0.106346	1.1588	-0.285228	0	0	0.0198515	0.148209	-0.334386	0.413197	-0.189817	0	0	-0.357313	-0.166271	-0.0788734	-0.224852	-0.185539	-0.265743	0.532854	0.39213	0	0	-0.217997	-0.712298	0.840817	0.684284	0.765802	0	0
0.99	0.571557	1.35128	-2.19786	0.829236	0.21831	1.05132	-0.0468533	-0.125852	0.109036	1.18898	-0.264526	0	0	0.000519473	0.152237	-0.333032	0.404309	-0.187403	0	0	-0.363369	-0.166134	-0.0832436	-0.224227	-0.186391	-0.266043	0.537512	0.396611	0	0	-0.2023	-0.723819	0.845439	0.68592	0.771978	0	0
1	0.561476	1.3495	-2.18543	0.830627	0.208748	1.05258	-0.0230092	-0.123353	0.110288	1.21426	-0.245884	0	0	-0.0167765	0.153824	-0.331601	0.396155	-0.185547	0	0	-0.368071	-0.163692	-0.0877648	-0.224105	-0.187473	-0.266124	0.541688	0.400269	0	0	-0.185776	-0.735162	0.848091	0.688577	0.777958	0	0
1.01	0.546709	1.3489	-2.16718	0.832073	0.199261	1.05394	-0.000118768	-0.119048	0.110364	1.23333	-0.232381	0	0	-0.0329406	0.153077	-0.32933	0.389643	-0.184182	0	0	-0.372047	-0.159144	-0.0930356	-0.223534	-0.188703	-0.265723	0.544297	0.403101	0	0	-0.169326	-0.746043	0.84931	0.691577	0.781686	0	0
1.02	0.530113	1.34931	-2.14647	0.833535	0.189915	1.05474	0.0235622	-0.114042	0.108336	1.24936	-0.203558	0	0	-0.0494476	0.152508	-0.323133	0.379791	-0.182245	0	0	-0.373723	-0.154312	-0.105575	-0.222477	-0.21274	-0.180144	0.546796	0.326418	0	0	-0.190966	-0.741063	0.746445	0.693268	0.86549	0	0
1.03	0.512458	1.35049	-2.12484	0.834968	0.180519	1.05658	0.046484	-0.108456	0.105187	1.25885	-0.197294	0	0	-0.0640948	0.148841	-0.320707	0.373328	-0.181184	0	0	-0.375812	-0.147516	-0.110586	-0.221298	-0.212173	-0.185004	0.54705	0.33329	0	0	-0.171782	-0.752849	0.755002	0.697934	0.859725	0	0
1.04	0.493027	1.35201	-2.10116	0.836393	0.17123	1.05784	0.0688123	-0.102606	0.100615	1.26286	-0.189764	0	0	-0.0784399	0.145283	-0.318537	0.366918	-0.180089	0	0	-0.377588	-0.140306	-0.115228	-0.220106	-0.212243	-0.188505	0.546705	0.338903	0	0	-0.153465	-0.764527	0.761141	0.702702	0.855532	0	0
1.05	0.473875	1.35381	-2.07804	0.837806	0.16203	1.05898	0.0915083	-0.0972229	0.0944097	1.26269	-0.183363	0	0	-0.0923561	0.141763	-0.317146	0.360266	-0.178919	0	0	-0.3788	-0.132971	-0.119674	-0.218754	-0.212926	-0.189948	0.546487	0.343011	0	0	-0.135837	-0.776068	0.76567	0.708214	0.853113	0	0
1.06	0.456406	1.35569	-2.05681	0.839194	0.152891	1.05997	0.114257	-0.0924866	0.0866217	1.25851	-0.176909	0	0	-0.106092	0.138891	-0.31529	0.352827	-0.177609	0	0	-0.379635	-0.126001	-0.123775	-0.21745	-0.213521	-0.19149	0.546961	0.346831	0	0	-0.118158	-0.78781	0.769463	0.714854	0.851661	0	0
1.07	0.440669	1.35775	-2.03743	0.840566	0.143724	1.06079	0.136311	-0.0882356	0.077917	1.24961	-0.170801	0	0	-0.119271	0.136417	-0.313538	0.345284	-0.176251	0	0	-0.379853	-0.119317	-0.127632	-0.216313	-0.214105	-0.193265	0.548166	0.350425	0	0	-0.1007	-0.799365	0.772323	0.722054	0.85078	0	0
1.08	0.426181	1.35971	-2.01875	0.841958	0.134535	1.06082	0.157134	-0.0844641	0.0681522	1.23635	-0.15621	0	0	-0.133524	0.135333	-0.308924	0.333727	-0.1747	0	0	-0.379769	-0.113195	-0.134776	-0.213635	-0.222836	-0.164826	0.54847	0.330422	0	0	-0.108612	-0.800148	0.706717	0.729506	0.902101	0	0
1.09	0.412422	1.36217	-2.00305	0.843217	0.125294	1.062	0.177949	-0.0802916	0.0607206	1.22011	-0.153222	0	0	-0.144863	0.132594	-0.309247	0.328568	-0.174046	0	0	-0.37809	-0.106965	-0.138588	-0.211629	-0.223068	-0.167348	0.550301	0.334947	0	0	-0.0908941	-0.8108	0.712455	0.736027	0.898612	0	0
1.1	0.399443	1.36439	-1.98723	0.84443	0.11611	1.06236	0.197455	-0.0763944	0.0528574	1.20039	-0.148792	0	0	-0.156399	0.130548	-0.307632	0.321716	-0.17327	0	0	-0.377041	-0.101031	-0.14198	-0.209908	-0.22345	-0.169871	0.552196	0.339679	0	0	-0.0735007	-0.822363	0.717764	0.743506	0.897504	0	0
1.11	0.386825	1.36638	-1.97193	0.845554	0.106929	1.06263	0.21583	-0.0729021	0.0452744	1.17803	-0.143561	0	0	-0.168089	0.128822	-0.304535	0.314399	-0.172533	0	0	-0.376163	-0.0955619	-0.145024	-0.208233	-0.223609	-0.172398	0.554718	0.344504	0	0	-0.0562067	-0.834189	0.722945	0.751576	0.899219	0	0
1.12	0.375267	1.36816	-1.95811	0.846601	0.0977393	1.06281	0.233254	-0.0701778	0.0380677	1.15378	-0.138052	0	0	-0.180612	0.127479	-0.300766	0.307762	-0.17125	0	0	-0.375428	-0.0906438	-0.147577	-0.206309	-0.223669	-0.174893	0.557133	0.349473	0	0	-0.0389285	-0.84573	0.727503	0.759593	0.902746	0	0
